<svg xmlns="http://www.w3.org/2000/svg" width="221.386" height="225.145" viewBox="0 0 221.386 225.145">
  <g id="GDOR" transform="translate(-176.54 -312.071)">
    <g id="Composant_1_2" data-name="Composant 1 – 2" transform="translate(333.536 448.798) rotate(-7)">
      <path id="Tracé_2" data-name="Tracé 2" d="M147.459,113.517a28.908,28.908,0,0,0,13.722,4.575,45.541,45.541,0,0,0,15.482-1.406,33.517,33.517,0,0,0,12.314-7.742,20.576,20.576,0,0,0,5.277-12.668A29.964,29.964,0,0,0,192.5,82.905a30.945,30.945,0,0,0-6.685-11.964,23.561,23.561,0,0,0-9.854-6.333c-5.98-1.758-11.963-1.407-18.3.353a30.938,30.938,0,0,0-13.019,7.39c-3.166,4.222-5.629,8.444-6.685,12.667-1.054,4.575-.7,10.2,1.057,16.186a21.8,21.8,0,0,0,8.446,12.314Z" transform="translate(-136.6 -60.436)" fill="#ffc325" fill-rule="evenodd"/>
      <g id="Tracé_14" data-name="Tracé 14" transform="translate(1.216 18.24)" fill="#fff">
        <path d="M 6.079890251159668 11.65978050231934 C 3.003130197525024 11.65978050231934 0.5000002384185791 9.156650543212891 0.5000002384185791 6.079890251159668 C 0.5000002384185791 3.003130197525024 3.003130197525024 0.5000002384185791 6.079890251159668 0.5000002384185791 C 9.156650543212891 0.5000002384185791 11.65978050231934 3.003130197525024 11.65978050231934 6.079890251159668 C 11.65978050231934 9.156650543212891 9.156650543212891 11.65978050231934 6.079890251159668 11.65978050231934 Z" stroke="none"/>
        <path d="M 6.079890251159668 1 C 3.278830528259277 1 1 3.278830528259277 1 6.079890251159668 C 1 8.880949974060059 3.278830528259277 11.15978050231934 6.079890251159668 11.15978050231934 C 8.880949974060059 11.15978050231934 11.15978050231934 8.880949974060059 11.15978050231934 6.079890251159668 C 11.15978050231934 3.278830528259277 8.880949974060059 1 6.079890251159668 1 M 6.079890251159668 0 C 9.43772029876709 0 12.15978050231934 2.722060203552246 12.15978050231934 6.079890251159668 C 12.15978050231934 9.43772029876709 9.43772029876709 12.15978050231934 6.079890251159668 12.15978050231934 C 2.722060203552246 12.15978050231934 0 9.43772029876709 0 6.079890251159668 C 0 2.722060203552246 2.722060203552246 0 6.079890251159668 0 Z" stroke="none" fill="#fff"/>
      </g>
      <g id="Tracé_15" data-name="Tracé 15" transform="translate(1.216 13.376)" fill="#fff">
        <path d="M 6.079890251159668 11.65978050231934 C 3.003130197525024 11.65978050231934 0.5000002384185791 9.156650543212891 0.5000002384185791 6.079890251159668 C 0.5000002384185791 3.003130197525024 3.003130197525024 0.5000002384185791 6.079890251159668 0.5000002384185791 C 9.156650543212891 0.5000002384185791 11.65978050231934 3.003130197525024 11.65978050231934 6.079890251159668 C 11.65978050231934 9.156650543212891 9.156650543212891 11.65978050231934 6.079890251159668 11.65978050231934 Z" stroke="none"/>
        <path d="M 6.079890251159668 1 C 3.278830528259277 1 1 3.278830528259277 1 6.079890251159668 C 1 8.880949974060059 3.278830528259277 11.15978050231934 6.079890251159668 11.15978050231934 C 8.880949974060059 11.15978050231934 11.15978050231934 8.880949974060059 11.15978050231934 6.079890251159668 C 11.15978050231934 3.278830528259277 8.880949974060059 1 6.079890251159668 1 M 6.079890251159668 0 C 9.43772029876709 0 12.15978050231934 2.722060203552246 12.15978050231934 6.079890251159668 C 12.15978050231934 9.43772029876709 9.43772029876709 12.15978050231934 6.079890251159668 12.15978050231934 C 2.722060203552246 12.15978050231934 0 9.43772029876709 0 6.079890251159668 C 0 2.722060203552246 2.722060203552246 0 6.079890251159668 0 Z" stroke="none" fill="#fff"/>
      </g>
      <g id="Tracé_16" data-name="Tracé 16" transform="translate(7.296 14.592)" fill="#fff">
        <path d="M 6.079890251159668 11.65978050231934 C 3.003130197525024 11.65978050231934 0.5000002384185791 9.156650543212891 0.5000002384185791 6.079890251159668 C 0.5000002384185791 3.003130197525024 3.003130197525024 0.5000002384185791 6.079890251159668 0.5000002384185791 C 9.156650543212891 0.5000002384185791 11.65978050231934 3.003130197525024 11.65978050231934 6.079890251159668 C 11.65978050231934 9.156650543212891 9.156650543212891 11.65978050231934 6.079890251159668 11.65978050231934 Z" stroke="none"/>
        <path d="M 6.079890251159668 1 C 3.278830528259277 1 1 3.278830528259277 1 6.079890251159668 C 1 8.880949974060059 3.278830528259277 11.15978050231934 6.079890251159668 11.15978050231934 C 8.880949974060059 11.15978050231934 11.15978050231934 8.880949974060059 11.15978050231934 6.079890251159668 C 11.15978050231934 3.278830528259277 8.880949974060059 1 6.079890251159668 1 M 6.079890251159668 0 C 9.43772029876709 0 12.15978050231934 2.722060203552246 12.15978050231934 6.079890251159668 C 12.15978050231934 9.43772029876709 9.43772029876709 12.15978050231934 6.079890251159668 12.15978050231934 C 2.722060203552246 12.15978050231934 0 9.43772029876709 0 6.079890251159668 C 0 2.722060203552246 2.722060203552246 0 6.079890251159668 0 Z" stroke="none" fill="#fff"/>
      </g>
      <g id="Tracé_17" data-name="Tracé 17" transform="translate(6.08 6.08)" fill="#fff">
        <path d="M 6.079890251159668 11.65978050231934 C 3.003130197525024 11.65978050231934 0.5000002384185791 9.156650543212891 0.5000002384185791 6.079890251159668 C 0.5000002384185791 3.003130197525024 3.003130197525024 0.5000002384185791 6.079890251159668 0.5000002384185791 C 9.156650543212891 0.5000002384185791 11.65978050231934 3.003130197525024 11.65978050231934 6.079890251159668 C 11.65978050231934 9.156650543212891 9.156650543212891 11.65978050231934 6.079890251159668 11.65978050231934 Z" stroke="none"/>
        <path d="M 6.079890251159668 1 C 3.278830528259277 1 1 3.278830528259277 1 6.079890251159668 C 1 8.880949974060059 3.278830528259277 11.15978050231934 6.079890251159668 11.15978050231934 C 8.880949974060059 11.15978050231934 11.15978050231934 8.880949974060059 11.15978050231934 6.079890251159668 C 11.15978050231934 3.278830528259277 8.880949974060059 1 6.079890251159668 1 M 6.079890251159668 0 C 9.43772029876709 0 12.15978050231934 2.722060203552246 12.15978050231934 6.079890251159668 C 12.15978050231934 9.43772029876709 9.43772029876709 12.15978050231934 6.079890251159668 12.15978050231934 C 2.722060203552246 12.15978050231934 0 9.43772029876709 0 6.079890251159668 C 0 2.722060203552246 2.722060203552246 0 6.079890251159668 0 Z" stroke="none" fill="#fff"/>
      </g>
      <g id="Tracé_18" data-name="Tracé 18" transform="translate(12.16 8.512)" fill="#fff">
        <path d="M 6.079890251159668 11.65978050231934 C 3.003130197525024 11.65978050231934 0.5000002384185791 9.156650543212891 0.5000002384185791 6.079890251159668 C 0.5000002384185791 3.003130197525024 3.003130197525024 0.5000002384185791 6.079890251159668 0.5000002384185791 C 9.156650543212891 0.5000002384185791 11.65978050231934 3.003130197525024 11.65978050231934 6.079890251159668 C 11.65978050231934 9.156650543212891 9.156650543212891 11.65978050231934 6.079890251159668 11.65978050231934 Z" stroke="none"/>
        <path d="M 6.079890251159668 1 C 3.278830528259277 1 1 3.278830528259277 1 6.079890251159668 C 1 8.880949974060059 3.278830528259277 11.15978050231934 6.079890251159668 11.15978050231934 C 8.880949974060059 11.15978050231934 11.15978050231934 8.880949974060059 11.15978050231934 6.079890251159668 C 11.15978050231934 3.278830528259277 8.880949974060059 1 6.079890251159668 1 M 6.079890251159668 0 C 9.43772029876709 0 12.15978050231934 2.722060203552246 12.15978050231934 6.079890251159668 C 12.15978050231934 9.43772029876709 9.43772029876709 12.15978050231934 6.079890251159668 12.15978050231934 C 2.722060203552246 12.15978050231934 0 9.43772029876709 0 6.079890251159668 C 0 2.722060203552246 2.722060203552246 0 6.079890251159668 0 Z" stroke="none" fill="#fff"/>
      </g>
      <g id="Tracé_19" data-name="Tracé 19" transform="translate(15.808 2.432)" fill="#fff">
        <path d="M 6.079890251159668 11.65978050231934 C 3.003130197525024 11.65978050231934 0.5000002384185791 9.156650543212891 0.5000002384185791 6.079890251159668 C 0.5000002384185791 3.003130197525024 3.003130197525024 0.5000002384185791 6.079890251159668 0.5000002384185791 C 9.156650543212891 0.5000002384185791 11.65978050231934 3.003130197525024 11.65978050231934 6.079890251159668 C 11.65978050231934 9.156650543212891 9.156650543212891 11.65978050231934 6.079890251159668 11.65978050231934 Z" stroke="none"/>
        <path d="M 6.079890251159668 1 C 3.278830528259277 1 1 3.278830528259277 1 6.079890251159668 C 1 8.880949974060059 3.278830528259277 11.15978050231934 6.079890251159668 11.15978050231934 C 8.880949974060059 11.15978050231934 11.15978050231934 8.880949974060059 11.15978050231934 6.079890251159668 C 11.15978050231934 3.278830528259277 8.880949974060059 1 6.079890251159668 1 M 6.079890251159668 0 C 9.43772029876709 0 12.15978050231934 2.722060203552246 12.15978050231934 6.079890251159668 C 12.15978050231934 9.43772029876709 9.43772029876709 12.15978050231934 6.079890251159668 12.15978050231934 C 2.722060203552246 12.15978050231934 0 9.43772029876709 0 6.079890251159668 C 0 2.722060203552246 2.722060203552246 0 6.079890251159668 0 Z" stroke="none" fill="#fff"/>
      </g>
      <g id="Tracé_20" data-name="Tracé 20" transform="translate(21.888 4.864)" fill="#fff">
        <path d="M 6.079890251159668 11.65978050231934 C 3.003130197525024 11.65978050231934 0.5000002384185791 9.156650543212891 0.5000002384185791 6.079890251159668 C 0.5000002384185791 3.003130197525024 3.003130197525024 0.5000002384185791 6.079890251159668 0.5000002384185791 C 9.156650543212891 0.5000002384185791 11.65978050231934 3.003130197525024 11.65978050231934 6.079890251159668 C 11.65978050231934 9.156650543212891 9.156650543212891 11.65978050231934 6.079890251159668 11.65978050231934 Z" stroke="none"/>
        <path d="M 6.079890251159668 1 C 3.278830528259277 1 1 3.278830528259277 1 6.079890251159668 C 1 8.880949974060059 3.278830528259277 11.15978050231934 6.079890251159668 11.15978050231934 C 8.880949974060059 11.15978050231934 11.15978050231934 8.880949974060059 11.15978050231934 6.079890251159668 C 11.15978050231934 3.278830528259277 8.880949974060059 1 6.079890251159668 1 M 6.079890251159668 0 C 9.43772029876709 0 12.15978050231934 2.722060203552246 12.15978050231934 6.079890251159668 C 12.15978050231934 9.43772029876709 9.43772029876709 12.15978050231934 6.079890251159668 12.15978050231934 C 2.722060203552246 12.15978050231934 0 9.43772029876709 0 6.079890251159668 C 0 2.722060203552246 2.722060203552246 0 6.079890251159668 0 Z" stroke="none" fill="#fff"/>
      </g>
      <g id="Tracé_21" data-name="Tracé 21" transform="translate(25.536)" fill="#fff">
        <path d="M 6.079890251159668 11.65978050231934 C 3.003130197525024 11.65978050231934 0.5000002384185791 9.156650543212891 0.5000002384185791 6.079890251159668 C 0.5000002384185791 3.003130197525024 3.003130197525024 0.5000002384185791 6.079890251159668 0.5000002384185791 C 9.156650543212891 0.5000002384185791 11.65978050231934 3.003130197525024 11.65978050231934 6.079890251159668 C 11.65978050231934 9.156650543212891 9.156650543212891 11.65978050231934 6.079890251159668 11.65978050231934 Z" stroke="none"/>
        <path d="M 6.079890251159668 1 C 3.278830528259277 1 1 3.278830528259277 1 6.079890251159668 C 1 8.880949974060059 3.278830528259277 11.15978050231934 6.079890251159668 11.15978050231934 C 8.880949974060059 11.15978050231934 11.15978050231934 8.880949974060059 11.15978050231934 6.079890251159668 C 11.15978050231934 3.278830528259277 8.880949974060059 1 6.079890251159668 1 M 6.079890251159668 0 C 9.43772029876709 0 12.15978050231934 2.722060203552246 12.15978050231934 6.079890251159668 C 12.15978050231934 9.43772029876709 9.43772029876709 12.15978050231934 6.079890251159668 12.15978050231934 C 2.722060203552246 12.15978050231934 0 9.43772029876709 0 6.079890251159668 C 0 2.722060203552246 2.722060203552246 0 6.079890251159668 0 Z" stroke="none" fill="#fff"/>
      </g>
      <g id="Tracé_22" data-name="Tracé 22" transform="translate(18.24 1.216)" fill="#fff">
        <path d="M 6.079890251159668 11.65978050231934 C 3.003130197525024 11.65978050231934 0.5000002384185791 9.156650543212891 0.5000002384185791 6.079890251159668 C 0.5000002384185791 3.003130197525024 3.003130197525024 0.5000002384185791 6.079890251159668 0.5000002384185791 C 9.156650543212891 0.5000002384185791 11.65978050231934 3.003130197525024 11.65978050231934 6.079890251159668 C 11.65978050231934 9.156650543212891 9.156650543212891 11.65978050231934 6.079890251159668 11.65978050231934 Z" stroke="none"/>
        <path d="M 6.079890251159668 1 C 3.278830528259277 1 1 3.278830528259277 1 6.079890251159668 C 1 8.880949974060059 3.278830528259277 11.15978050231934 6.079890251159668 11.15978050231934 C 8.880949974060059 11.15978050231934 11.15978050231934 8.880949974060059 11.15978050231934 6.079890251159668 C 11.15978050231934 3.278830528259277 8.880949974060059 1 6.079890251159668 1 M 6.079890251159668 0 C 9.43772029876709 0 12.15978050231934 2.722060203552246 12.15978050231934 6.079890251159668 C 12.15978050231934 9.43772029876709 9.43772029876709 12.15978050231934 6.079890251159668 12.15978050231934 C 2.722060203552246 12.15978050231934 0 9.43772029876709 0 6.079890251159668 C 0 2.722060203552246 2.722060203552246 0 6.079890251159668 0 Z" stroke="none" fill="#fff"/>
      </g>
      <g id="Tracé_23" data-name="Tracé 23" transform="translate(12.16 13.376)" fill="#fff">
        <path d="M 6.079890251159668 11.65978050231934 C 3.003130197525024 11.65978050231934 0.5000002384185791 9.156650543212891 0.5000002384185791 6.079890251159668 C 0.5000002384185791 3.003130197525024 3.003130197525024 0.5000002384185791 6.079890251159668 0.5000002384185791 C 9.156650543212891 0.5000002384185791 11.65978050231934 3.003130197525024 11.65978050231934 6.079890251159668 C 11.65978050231934 9.156650543212891 9.156650543212891 11.65978050231934 6.079890251159668 11.65978050231934 Z" stroke="none"/>
        <path d="M 6.079890251159668 1 C 3.278830528259277 1 1 3.278830528259277 1 6.079890251159668 C 1 8.880949974060059 3.278830528259277 11.15978050231934 6.079890251159668 11.15978050231934 C 8.880949974060059 11.15978050231934 11.15978050231934 8.880949974060059 11.15978050231934 6.079890251159668 C 11.15978050231934 3.278830528259277 8.880949974060059 1 6.079890251159668 1 M 6.079890251159668 0 C 9.43772029876709 0 12.15978050231934 2.722060203552246 12.15978050231934 6.079890251159668 C 12.15978050231934 9.43772029876709 9.43772029876709 12.15978050231934 6.079890251159668 12.15978050231934 C 2.722060203552246 12.15978050231934 0 9.43772029876709 0 6.079890251159668 C 0 2.722060203552246 2.722060203552246 0 6.079890251159668 0 Z" stroke="none" fill="#fff"/>
      </g>
      <g id="Tracé_24" data-name="Tracé 24" transform="translate(15.808 9.728)" fill="#fff">
        <path d="M 6.079890251159668 11.65978050231934 C 3.003130197525024 11.65978050231934 0.5000002384185791 9.156650543212891 0.5000002384185791 6.079890251159668 C 0.5000002384185791 3.003130197525024 3.003130197525024 0.5000002384185791 6.079890251159668 0.5000002384185791 C 9.156650543212891 0.5000002384185791 11.65978050231934 3.003130197525024 11.65978050231934 6.079890251159668 C 11.65978050231934 9.156650543212891 9.156650543212891 11.65978050231934 6.079890251159668 11.65978050231934 Z" stroke="none"/>
        <path d="M 6.079890251159668 1 C 3.278830528259277 1 1 3.278830528259277 1 6.079890251159668 C 1 8.880949974060059 3.278830528259277 11.15978050231934 6.079890251159668 11.15978050231934 C 8.880949974060059 11.15978050231934 11.15978050231934 8.880949974060059 11.15978050231934 6.079890251159668 C 11.15978050231934 3.278830528259277 8.880949974060059 1 6.079890251159668 1 M 6.079890251159668 0 C 9.43772029876709 0 12.15978050231934 2.722060203552246 12.15978050231934 6.079890251159668 C 12.15978050231934 9.43772029876709 9.43772029876709 12.15978050231934 6.079890251159668 12.15978050231934 C 2.722060203552246 12.15978050231934 0 9.43772029876709 0 6.079890251159668 C 0 2.722060203552246 2.722060203552246 0 6.079890251159668 0 Z" stroke="none" fill="#fff"/>
      </g>
      <g id="Tracé_25" data-name="Tracé 25" transform="translate(0 24.32)" fill="#fff">
        <path d="M 4.255923271179199 8.011843681335449 C 2.184903383255005 8.011843681335449 0.5000032782554626 6.326943397521973 0.5000032782554626 4.255923271179199 C 0.5000032782554626 2.184903383255005 2.184903383255005 0.5000032782554626 4.255923271179199 0.5000032782554626 C 6.326943397521973 0.5000032782554626 8.011843681335449 2.184903383255005 8.011843681335449 4.255923271179199 C 8.011843681335449 6.326943397521973 6.326943397521973 8.011843681335449 4.255923271179199 8.011843681335449 Z" stroke="none"/>
        <path d="M 4.255923271179199 1.000003337860107 C 2.4606032371521 1.000003337860107 1.000003337860107 2.4606032371521 1.000003337860107 4.255923271179199 C 1.000003337860107 6.051243305206299 2.4606032371521 7.511843204498291 4.255923271179199 7.511843204498291 C 6.051243305206299 7.511843204498291 7.511843204498291 6.051243305206299 7.511843204498291 4.255923271179199 C 7.511843204498291 2.4606032371521 6.051243305206299 1.000003337860107 4.255923271179199 1.000003337860107 M 4.255923271179199 2.86102294921875e-06 C 6.606403350830078 2.86102294921875e-06 8.511843681335449 1.90544319152832 8.511843681335449 4.255923271179199 C 8.511843681335449 6.606403350830078 6.606403350830078 8.511843681335449 4.255923271179199 8.511843681335449 C 1.90544319152832 8.511843681335449 2.86102294921875e-06 6.606403350830078 2.86102294921875e-06 4.255923271179199 C 2.86102294921875e-06 1.90544319152832 1.90544319152832 2.86102294921875e-06 4.255923271179199 2.86102294921875e-06 Z" stroke="none" fill="#fff"/>
      </g>
      <g id="Tracé_26" data-name="Tracé 26" transform="translate(31.615)" fill="#fff">
        <path d="M 4.863912105560303 10.4438009262085 C 2.457642078399658 10.4438009262085 0.5000020861625671 8.213411331176758 0.5000020861625671 5.471900939941406 C 0.5000020861625671 2.730391025543213 2.457642078399658 0.5000009536743164 4.863912105560303 0.5000009536743164 C 7.270182132720947 0.5000009536743164 9.227822303771973 2.730391025543213 9.227822303771973 5.471900939941406 C 9.227822303771973 8.213411331176758 7.270182132720947 10.4438009262085 4.863912105560303 10.4438009262085 Z" stroke="none"/>
        <path d="M 4.863912105560303 1.000000953674316 C 2.733342170715332 1.000000953674316 1.000001907348633 3.006091117858887 1.000001907348633 5.471900939941406 C 1.000001907348633 7.937710762023926 2.733342170715332 9.943800926208496 4.863912105560303 9.943800926208496 C 6.994482040405273 9.943800926208496 8.727822303771973 7.937710762023926 8.727822303771973 5.471900939941406 C 8.727822303771973 3.006091117858887 6.994482040405273 1.000000953674316 4.863912105560303 1.000000953674316 M 4.863912105560303 9.5367431640625e-07 C 7.550171852111816 9.5367431640625e-07 9.727822303771973 2.449851036071777 9.727822303771973 5.471900939941406 C 9.727822303771973 8.493950843811035 7.550171852111816 10.9438009262085 4.863912105560303 10.9438009262085 C 2.177651882171631 10.9438009262085 1.9073486328125e-06 8.493950843811035 1.9073486328125e-06 5.471900939941406 C 1.9073486328125e-06 2.449851036071777 2.177651882171631 9.5367431640625e-07 4.863912105560303 9.5367431640625e-07 Z" stroke="none" fill="#fff"/>
      </g>
      <g id="Tracé_27" data-name="Tracé 27" transform="translate(10.944 3.648)" fill="#fff">
        <path d="M 6.079890251159668 11.65978050231934 C 3.003130197525024 11.65978050231934 0.5000002384185791 9.156650543212891 0.5000002384185791 6.079890251159668 C 0.5000002384185791 3.003130197525024 3.003130197525024 0.5000002384185791 6.079890251159668 0.5000002384185791 C 9.156650543212891 0.5000002384185791 11.65978050231934 3.003130197525024 11.65978050231934 6.079890251159668 C 11.65978050231934 9.156650543212891 9.156650543212891 11.65978050231934 6.079890251159668 11.65978050231934 Z" stroke="none"/>
        <path d="M 6.079890251159668 1 C 3.278830528259277 1 1 3.278830528259277 1 6.079890251159668 C 1 8.880949974060059 3.278830528259277 11.15978050231934 6.079890251159668 11.15978050231934 C 8.880949974060059 11.15978050231934 11.15978050231934 8.880949974060059 11.15978050231934 6.079890251159668 C 11.15978050231934 3.278830528259277 8.880949974060059 1 6.079890251159668 1 M 6.079890251159668 0 C 9.43772029876709 0 12.15978050231934 2.722060203552246 12.15978050231934 6.079890251159668 C 12.15978050231934 9.43772029876709 9.43772029876709 12.15978050231934 6.079890251159668 12.15978050231934 C 2.722060203552246 12.15978050231934 0 9.43772029876709 0 6.079890251159668 C 0 2.722060203552246 2.722060203552246 0 6.079890251159668 0 Z" stroke="none" fill="#fff"/>
      </g>
      <g id="Tracé_28" data-name="Tracé 28" transform="translate(20.672 1.216)" fill="#fff">
        <path d="M 6.079890251159668 11.65978050231934 C 3.003130197525024 11.65978050231934 0.5000002384185791 9.156650543212891 0.5000002384185791 6.079890251159668 C 0.5000002384185791 3.003130197525024 3.003130197525024 0.5000002384185791 6.079890251159668 0.5000002384185791 C 9.156650543212891 0.5000002384185791 11.65978050231934 3.003130197525024 11.65978050231934 6.079890251159668 C 11.65978050231934 9.156650543212891 9.156650543212891 11.65978050231934 6.079890251159668 11.65978050231934 Z" stroke="none"/>
        <path d="M 6.079890251159668 1 C 3.278830528259277 1 1 3.278830528259277 1 6.079890251159668 C 1 8.880949974060059 3.278830528259277 11.15978050231934 6.079890251159668 11.15978050231934 C 8.880949974060059 11.15978050231934 11.15978050231934 8.880949974060059 11.15978050231934 6.079890251159668 C 11.15978050231934 3.278830528259277 8.880949974060059 1 6.079890251159668 1 M 6.079890251159668 0 C 9.43772029876709 0 12.15978050231934 2.722060203552246 12.15978050231934 6.079890251159668 C 12.15978050231934 9.43772029876709 9.43772029876709 12.15978050231934 6.079890251159668 12.15978050231934 C 2.722060203552246 12.15978050231934 0 9.43772029876709 0 6.079890251159668 C 0 2.722060203552246 2.722060203552246 0 6.079890251159668 0 Z" stroke="none" fill="#fff"/>
      </g>
      <g id="Tracé_29" data-name="Tracé 29" transform="translate(19.456 7.296)" fill="#fff">
        <path d="M 6.079890251159668 11.65978050231934 C 3.003130197525024 11.65978050231934 0.5000002384185791 9.156650543212891 0.5000002384185791 6.079890251159668 C 0.5000002384185791 3.003130197525024 3.003130197525024 0.5000002384185791 6.079890251159668 0.5000002384185791 C 9.156650543212891 0.5000002384185791 11.65978050231934 3.003130197525024 11.65978050231934 6.079890251159668 C 11.65978050231934 9.156650543212891 9.156650543212891 11.65978050231934 6.079890251159668 11.65978050231934 Z" stroke="none"/>
        <path d="M 6.079890251159668 1 C 3.278830528259277 1 1 3.278830528259277 1 6.079890251159668 C 1 8.880949974060059 3.278830528259277 11.15978050231934 6.079890251159668 11.15978050231934 C 8.880949974060059 11.15978050231934 11.15978050231934 8.880949974060059 11.15978050231934 6.079890251159668 C 11.15978050231934 3.278830528259277 8.880949974060059 1 6.079890251159668 1 M 6.079890251159668 0 C 9.43772029876709 0 12.15978050231934 2.722060203552246 12.15978050231934 6.079890251159668 C 12.15978050231934 9.43772029876709 9.43772029876709 12.15978050231934 6.079890251159668 12.15978050231934 C 2.722060203552246 12.15978050231934 0 9.43772029876709 0 6.079890251159668 C 0 2.722060203552246 2.722060203552246 0 6.079890251159668 0 Z" stroke="none" fill="#fff"/>
      </g>
      <g id="Tracé_30" data-name="Tracé 30" transform="translate(26.752 6.08)" fill="#fff">
        <path d="M 5.471900939941406 11.65978050231934 C 2.730391025543213 11.65978050231934 0.5000009536743164 9.156650543212891 0.5000009536743164 6.079890251159668 C 0.5000009536743164 3.003130197525024 2.730391025543213 0.5000002384185791 5.471900939941406 0.5000002384185791 C 8.213411331176758 0.5000002384185791 10.4438009262085 3.003130197525024 10.4438009262085 6.079890251159668 C 10.4438009262085 9.156650543212891 8.213411331176758 11.65978050231934 5.471900939941406 11.65978050231934 Z" stroke="none"/>
        <path d="M 5.471900939941406 1 C 3.006091117858887 1 1.000000953674316 3.278830528259277 1.000000953674316 6.079890251159668 C 1.000000953674316 8.880949974060059 3.006091117858887 11.15978050231934 5.471900939941406 11.15978050231934 C 7.937710762023926 11.15978050231934 9.943800926208496 8.880949974060059 9.943800926208496 6.079890251159668 C 9.943800926208496 3.278830528259277 7.937710762023926 1 5.471900939941406 1 M 5.471900939941406 0 C 8.493950843811035 0 10.9438009262085 2.722060203552246 10.9438009262085 6.079890251159668 C 10.9438009262085 9.43772029876709 8.493950843811035 12.15978050231934 5.471900939941406 12.15978050231934 C 2.449851036071777 12.15978050231934 9.5367431640625e-07 9.43772029876709 9.5367431640625e-07 6.079890251159668 C 9.5367431640625e-07 2.722060203552246 2.449851036071777 0 5.471900939941406 0 Z" stroke="none" fill="#fff"/>
      </g>
      <g id="Tracé_31" data-name="Tracé 31" transform="translate(32.831 3.648)" fill="#fff">
        <path d="M 5.471900939941406 9.227822303771973 C 2.730391025543213 9.227822303771973 0.5000009536743164 7.270182132720947 0.5000009536743164 4.863912105560303 C 0.5000009536743164 2.457642078399658 2.730391025543213 0.5000020861625671 5.471900939941406 0.5000020861625671 C 8.213411331176758 0.5000020861625671 10.4438009262085 2.457642078399658 10.4438009262085 4.863912105560303 C 10.4438009262085 7.270182132720947 8.213411331176758 9.227822303771973 5.471900939941406 9.227822303771973 Z" stroke="none"/>
        <path d="M 5.471900939941406 1.000001907348633 C 3.006091117858887 1.000001907348633 1.000000953674316 2.733342170715332 1.000000953674316 4.863912105560303 C 1.000000953674316 6.994482040405273 3.006091117858887 8.727822303771973 5.471900939941406 8.727822303771973 C 7.937710762023926 8.727822303771973 9.943800926208496 6.994482040405273 9.943800926208496 4.863912105560303 C 9.943800926208496 2.733342170715332 7.937710762023926 1.000001907348633 5.471900939941406 1.000001907348633 M 5.471900939941406 1.9073486328125e-06 C 8.493950843811035 1.9073486328125e-06 10.9438009262085 2.177651882171631 10.9438009262085 4.863912105560303 C 10.9438009262085 7.550171852111816 8.493950843811035 9.727822303771973 5.471900939941406 9.727822303771973 C 2.449851036071777 9.727822303771973 9.5367431640625e-07 7.550171852111816 9.5367431640625e-07 4.863912105560303 C 9.5367431640625e-07 2.177651882171631 2.449851036071777 1.9073486328125e-06 5.471900939941406 1.9073486328125e-06 Z" stroke="none" fill="#fff"/>
      </g>
      <g id="Tracé_32" data-name="Tracé 32" transform="translate(36.479 2.432)" fill="#fff">
        <path d="M 4.255923271179199 8.011843681335449 C 2.184903383255005 8.011843681335449 0.5000032782554626 6.326943397521973 0.5000032782554626 4.255923271179199 C 0.5000032782554626 2.184903383255005 2.184903383255005 0.5000032782554626 4.255923271179199 0.5000032782554626 C 6.326943397521973 0.5000032782554626 8.011843681335449 2.184903383255005 8.011843681335449 4.255923271179199 C 8.011843681335449 6.326943397521973 6.326943397521973 8.011843681335449 4.255923271179199 8.011843681335449 Z" stroke="none"/>
        <path d="M 4.255923271179199 1.000003337860107 C 2.4606032371521 1.000003337860107 1.000003337860107 2.4606032371521 1.000003337860107 4.255923271179199 C 1.000003337860107 6.051243305206299 2.4606032371521 7.511843204498291 4.255923271179199 7.511843204498291 C 6.051243305206299 7.511843204498291 7.511843204498291 6.051243305206299 7.511843204498291 4.255923271179199 C 7.511843204498291 2.4606032371521 6.051243305206299 1.000003337860107 4.255923271179199 1.000003337860107 M 4.255923271179199 2.86102294921875e-06 C 6.606403350830078 2.86102294921875e-06 8.511843681335449 1.90544319152832 8.511843681335449 4.255923271179199 C 8.511843681335449 6.606403350830078 6.606403350830078 8.511843681335449 4.255923271179199 8.511843681335449 C 1.90544319152832 8.511843681335449 2.86102294921875e-06 6.606403350830078 2.86102294921875e-06 4.255923271179199 C 2.86102294921875e-06 1.90544319152832 1.90544319152832 2.86102294921875e-06 4.255923271179199 2.86102294921875e-06 Z" stroke="none" fill="#fff"/>
      </g>
      <g id="Tracé_33" data-name="Tracé 33" transform="translate(0 18.24)" fill="#fff">
        <path d="M 6.079890251159668 11.65978050231934 C 3.003130197525024 11.65978050231934 0.5000002384185791 9.156650543212891 0.5000002384185791 6.079890251159668 C 0.5000002384185791 3.003130197525024 3.003130197525024 0.5000002384185791 6.079890251159668 0.5000002384185791 C 9.156650543212891 0.5000002384185791 11.65978050231934 3.003130197525024 11.65978050231934 6.079890251159668 C 11.65978050231934 9.156650543212891 9.156650543212891 11.65978050231934 6.079890251159668 11.65978050231934 Z" stroke="none"/>
        <path d="M 6.079890251159668 1 C 3.278830528259277 1 1 3.278830528259277 1 6.079890251159668 C 1 8.880949974060059 3.278830528259277 11.15978050231934 6.079890251159668 11.15978050231934 C 8.880949974060059 11.15978050231934 11.15978050231934 8.880949974060059 11.15978050231934 6.079890251159668 C 11.15978050231934 3.278830528259277 8.880949974060059 1 6.079890251159668 1 M 6.079890251159668 0 C 9.43772029876709 0 12.15978050231934 2.722060203552246 12.15978050231934 6.079890251159668 C 12.15978050231934 9.43772029876709 9.43772029876709 12.15978050231934 6.079890251159668 12.15978050231934 C 2.722060203552246 12.15978050231934 0 9.43772029876709 0 6.079890251159668 C 0 2.722060203552246 2.722060203552246 0 6.079890251159668 0 Z" stroke="none" fill="#fff"/>
      </g>
    </g>
    <path id="O" d="M100.654,75.127,91.445,77.32a50.031,50.031,0,0,0-8.333,3.946A31.614,31.614,0,0,0,73.9,92.228a31.2,31.2,0,0,0-3.069,14.032,26.789,26.789,0,0,0,3.508,13.156,21.518,21.518,0,0,0,10.084,9.645,23.557,23.557,0,0,0,15.347,2.631,22.221,22.221,0,0,0,14.47-6.576A23.563,23.563,0,0,0,121.7,108.89a23.555,23.555,0,0,0-5.263-17.1,17.25,17.25,0,0,0-8.772-6.578,19.573,19.573,0,0,0-10.086,0,17.641,17.641,0,0,0-8.769,3.946,21.408,21.408,0,0,0-3.07,3.506l-.876-.438c.438-3.946,2.631-7.454,6.576-10.086a28.954,28.954,0,0,1,12.717-3.946c5.7-.439,10.524,1.315,15.349,4.823a36.633,36.633,0,0,1,9.645,13.156,38.85,38.85,0,0,1,2.631,17.1,34.289,34.289,0,0,1-5.7,16.225A38.669,38.669,0,0,1,110.3,142.653c-9.209,3.946-18.855,3.506-28.5-1.317C71.708,136.515,65.57,129.5,62.5,119.414a39.344,39.344,0,0,1,1.315-24.557c3.506-8.331,8.769-14.47,16.223-18.417a23.863,23.863,0,0,1,11.839-3.069,30.153,30.153,0,0,1,8.775,1.756Zm-6.14,34.642c1.9,1.423,3.55,2.052,5.187,1.53,1.014-1.353,3.053-5.361.074-6.352a3.287,3.287,0,0,0-3.946,0,4.679,4.679,0,0,0-1.315,4.822Z" transform="translate(170.661 375.822)" fill="#fff" fill-rule="evenodd"/>
    <path id="e" d="M160.591,111.161a19.32,19.32,0,0,0-5.755,10.428c-.119.481-.237.958-.359,1.439l.721,1.439.359-.362a33.192,33.192,0,0,0,4.675-6.833,27.4,27.4,0,0,0,2.157-7.192c-.281.281-1.335.685-1.8,1.08Zm6.473,3.6a36.2,36.2,0,0,1-6.114,8.99q-1.26,1.077-2.517,2.157c-1.439,1.08-2.517,1.439-3.6,1.08l-.718-.721-.359,4.316q0,5.935,2.157,8.631a2.717,2.717,0,0,0,2.517,1.439,11.154,11.154,0,0,0,6.473-1.08q5.753-3.6,11.508-7.192l7.192-5.034.721.359c-5.755,7.192-10.43,12.585-14.386,15.822q-2.52,1.437-5.034,2.876a17.313,17.313,0,0,1-8.99,1.439,11.122,11.122,0,0,1-7.192-4.675,21.437,21.437,0,0,1-2.876-6.833,31.586,31.586,0,0,1-.721-11.508,28.789,28.789,0,0,1,3.6-11.149,24.062,24.062,0,0,1,6.112-7.192,15.47,15.47,0,0,1,8.272-3.6,10.669,10.669,0,0,1,3.6.718,7.362,7.362,0,0,1,1.8,3.237,12.922,12.922,0,0,1-1.44,7.915Z" transform="translate(126.337 283.519)" fill="#fff" fill-rule="evenodd"/>
    <path id="R" d="M46.389,5.4a5.342,5.342,0,0,0,2.876,5.034c1.8.72,3.6.72,4.675-.359,2.876-2.518,2.876-5.034.359-7.911-2.137-2.139-8.682.154-7.91,3.236ZM35.6,1.8c4.675,2.157,6.833,4.674,7.192,7.192,0,2.157-1.439,4.316-3.957,6.833l-7.91,5.754L28.05,24.1,43.87,37.042c-.119.36-.237.72-.359,1.079Q36.138,34.7,28.768,31.287q-5.935-2.7-7.553-5.393c-.718-1.8-.718-3.236.362-4.315q4.854-5.035,9.708-10.07l1.077-1.079-2.155-.359q-3.236-.179-6.473-.36l-9.349,1.8-3.237,1.079c-.24.24-.481.48-.718.72q-.36,5.574-.718,11.147A364.381,364.381,0,0,1,2.876,73.361Q1.619,75.7.362,78.036V24.094L0,12.227A10.716,10.716,0,0,1,1.8,6.833a9.2,9.2,0,0,1,4.675-3.6A27.01,27.01,0,0,1,17.263,0L29.489.36A30.517,30.517,0,0,1,35.6,1.8Z" transform="translate(304.112 426.377) rotate(-7)" fill="#fff" fill-rule="evenodd"/>
    <path id="d" d="M13.261,25.111Q9.073,26.5,7.683,33.478L5.823,44.637v1.857l.929.929h.932C9.6,46.671,11,44.361,12.329,41.845c2.1-4.649,4.023-9.3,4.649-13.945V26.043Q15.119,25.566,13.261,25.111ZM17.908,3.718C17.908.929,18.839,0,20.7,0a2.466,2.466,0,0,1,2.789,2.789c.932,5.578,1.86,11.159,1.86,15.8l-.929,9.3.929,5.578q1.4,5.572,2.789,11.159h-.929l-3.721-9.3-1.857,4.649A50.725,50.725,0,0,1,14.19,50.209c-3.721,4.643-7.438,4.643-11.159,1.857A9.919,9.919,0,0,1,.242,47.417c-.929-4.649.929-10.231,3.718-15.809q4.184-11.153,11.159-8.367l1.86.929.932-5.581,0-14.871Z" transform="matrix(1, -0.017, 0.017, 1, 189.274, 483.257)" fill="#fff" fill-rule="evenodd"/>
    <path id="Le" d="M105.1,54.076c-1.014,4.56-1.014,8.107.506,10.641a3.566,3.566,0,0,0,2.028,2.532,9.617,9.617,0,0,0,7.092-1.52,45.708,45.708,0,0,0,9.627-7.093h.51c-3.04,8.612-8.109,13.173-15.708,14.187-4.56.506-7.6-1.52-10.135-6.586-2.534-5.575-2.534-11.149-.506-17.734q3.8-11.4,13.681-13.679a5.146,5.146,0,0,1,5.066,1.014q3.041,2.28,1.522,7.6A18.954,18.954,0,0,1,112.7,53.572a8.062,8.062,0,0,1-5.067,2.534,2.632,2.632,0,0,1-2.028-1.014q-.25-.509-.5-1.016ZM113.713,40.9c-.585-.369-1.642-.079-2.534,1.014-2.026,2.028-3.546,5.067-5.067,9.627v.506l.506,2.028.506-.508c2.028-1.012,3.548-3.04,5.069-5.573a16.2,16.2,0,0,0,1.52-7.093Zm-37.5-18.746c2.534,4.56,4.56,8.613,5.067,12.161A122.525,122.525,0,0,1,83.312,58.13V69.784l.506,4.56.506,1.52h.508L97.5,71.3,98,72.318,91.418,78.4a15.37,15.37,0,0,1-8.105,4.052l-2.534-.506c-2.026-1.52-3.546-4.054-5.067-7.6l-1.52-9.627L74.7,44.955l1.014-16.72.506-6.08Z" transform="translate(144.694 289.916)" fill="#fff" fill-rule="evenodd"/>
    <path id="Tracé_5" data-name="Tracé 5" d="M18.388.6A48.726,48.726,0,0,0,6.265,8.225C2.107,12.034-3.436,6.837,2.8,3.372,8.344.256,13.54-.784,18.388.6Z" transform="translate(227.652 461.77) rotate(114)" fill="#fff" fill-rule="evenodd"/>
    <path id="L" d="M76.217,22.155c2.534,4.56,4.56,8.613,5.067,12.161A122.525,122.525,0,0,1,83.312,58.13V69.784l.506,4.56.506,1.52h.508L97.5,71.3,98,72.318,91.418,78.4a15.37,15.37,0,0,1-8.105,4.052l-2.534-.506c-2.026-1.52-3.546-4.054-5.067-7.6l-1.52-9.627L74.7,44.955l1.014-16.72.506-6.08Z" transform="translate(168.275 349.567)" fill="#fff" fill-rule="evenodd"/>
    <g id="le-tour-de-france-1" transform="translate(296.212 352.528)">
      <path id="T" d="M50.81,64.26l10.9-3.04.253.506c-4.054,3.8-7.095,6.082-9.122,7.1a32.448,32.448,0,0,1-5.574,2.28l2.28,15.2.76,10.9a65.533,65.533,0,0,1-.76,10.641l-2.027,5.575-.507-.253-2.534-11.656L42.2,79.716a57.792,57.792,0,0,1,.507-7.855l-1.014.253L37.672,71.9l-5.125-.273L22.684,71.1l14.125-4.036,3.612-1.032Z" transform="translate(-22.684 -61.22)" fill="#fff" fill-rule="evenodd"/>
    </g>
    <g id="Groupe_1" data-name="Groupe 1" transform="matrix(1, -0.017, 0.017, 1, 219.796, 382.773)">
      <path id="L-2" data-name="L" d="M1.485,0C3.342,3.342,4.828,6.314,5.2,8.914A89.817,89.817,0,0,1,6.686,26.371v8.544l.371,3.342c.787,4.658-2.228,5.572-2.228,5.572-1.485-1.114-2.6-2.971-3.715-5.572L0,31.2.371,16.714,1.114,4.457,1.485,0Z" transform="translate(3.344 15.347)" fill="#fff" fill-rule="evenodd"/>
      <path id="O-2" data-name="O" d="M.2,6.839C2.576,8.614,4.636,9.4,6.678,8.749,7.943,7.06,10.489,2.058,6.771.821a4.1,4.1,0,0,0-4.924,0C.2,2.461-.342,4.1.2,6.839Z" transform="translate(0 0)" fill="#fff" fill-rule="evenodd"/>
    </g>
    <path id="Tracé_8" data-name="Tracé 8" d="M12.471,9.6c2.491,2.577,3.6,9.218,4.669,14.831.118.577.234,1.15.355,1.728h-1.42c-3.953.176-6.178-2.828-7.244-5.418-1.064-3.022-1.653-9.209.916-10.149,1.433-.78,2.268-1.467,2.726-.992ZM3.3,20.131C4.722,24.018,5.336,24,7.82,27.455a15.828,15.828,0,0,0,5.23,3.456c2.111.453,3.023.431,4.09,0l.709-.865.354,5.182q0,7.126-2.129,10.363a2.626,2.626,0,0,1-2.484,1.728c-1.775.431-4.741,2.04-8.529-.84L.235,43.5,0,46.513c5.681,8.635,5.544,6.56,7.2,7.71,3.551,1.728,6.39,2.159,8.874,1.728a11.078,11.078,0,0,0,7.1-5.613,29.034,29.034,0,0,0,2.838-8.2,45.926,45.926,0,0,0,.711-13.817,40.055,40.055,0,0,0-3.551-13.386C21.4,11.479,17.677,1.646,16,.128,13.426-.5,11.923,1.38,8.974,1.977a31.146,31.146,0,0,1-3.4,1.6A7.578,7.578,0,0,0,3.648,6.726c-.355,3.028-1.766,9.95-.346,13.4Z" transform="translate(195.729 405.897) rotate(20)" fill="#fff" fill-rule="evenodd"/>
  </g>
</svg>
