<svg xmlns="http://www.w3.org/2000/svg" width="146.564" height="146.567" viewBox="0 0 146.564 146.567">
  <g id="Composant_1_10" data-name="Composant 1 – 10" transform="translate(0 16.028) rotate(-7)">
    <path id="Tracé_2" data-name="Tracé 2" d="M160.344,177.406a65.8,65.8,0,0,0,31.235,10.412c12.012.8,24.03,0,35.24-3.2A76.292,76.292,0,0,0,254.848,167a46.831,46.831,0,0,0,12.012-28.834,68.2,68.2,0,0,0-4-30.434A70.433,70.433,0,0,0,247.643,80.5c-7.21-7.207-14.418-12.012-22.43-14.414-13.612-4-27.23-3.2-41.647.8-12.812,4-22.425,9.612-29.635,16.819-7.207,9.609-12.812,19.219-15.217,28.831-2.4,10.412-1.6,23.227,2.405,36.841,3.2,12.012,9.613,20.821,19.225,28.028Z" transform="translate(-135.625 -56.587)" fill="#ffc325" fill-rule="evenodd"/>
    <g id="Tracé_34" data-name="Tracé 34" transform="translate(2.768 41.515)" fill="#fff">
      <path d="M 13.83911037445068 27.17697906494141 C 10.27610015869141 27.17697906494141 6.926350593566895 25.78952980041504 4.406930446624756 23.27021980285645 C 1.887510418891907 20.75090980529785 0.5000003576278687 17.40132904052734 0.5000003576278687 13.8384895324707 C 0.5000003576278687 10.27564907073975 1.887510418891907 6.926069736480713 4.406930446624756 4.406759738922119 C 6.926350593566895 1.887449502944946 10.27610015869141 0.4999995231628418 13.83911037445068 0.4999995231628418 C 17.40212059020996 0.4999995231628418 20.75187110900879 1.887449502944946 23.27128982543945 4.406759738922119 C 25.79071044921875 6.926069736480713 27.17822074890137 10.27564907073975 27.17822074890137 13.8384895324707 C 27.17822074890137 17.40132904052734 25.79071044921875 20.75090980529785 23.27128982543945 23.27021980285645 C 20.75187110900879 25.78952980041504 17.40212059020996 27.17697906494141 13.83911037445068 27.17697906494141 Z" stroke="none"/>
      <path d="M 13.83911037445068 1 C 10.4096508026123 1 7.185461044311523 2.335439682006836 4.760469436645508 4.760318756103516 C 2.335491180419922 7.185190200805664 1 10.40921020507812 1 13.8384895324707 C 1 17.26776885986328 2.335491180419922 20.49178886413574 4.760469436645508 22.91666030883789 C 7.185461044311523 25.34153938293457 10.4096508026123 26.67697906494141 13.83911037445068 26.67697906494141 C 17.26856994628906 26.67697906494141 20.49275970458984 25.34153938293457 22.91775131225586 22.91666030883789 C 25.34272956848145 20.49178886413574 26.67822074890137 17.26776885986328 26.67822074890137 13.8384895324707 C 26.67822074890137 10.40921020507812 25.34272956848145 7.185190200805664 22.91775131225586 4.760318756103516 C 20.49275970458984 2.335439682006836 17.26856994628906 1 13.83911037445068 1 M 13.83911037445068 0 C 21.48224067687988 0 27.67822074890137 6.195699691772461 27.67822074890137 13.8384895324707 C 27.67822074890137 21.48127937316895 21.48224067687988 27.67697906494141 13.83911037445068 27.67697906494141 C 6.195980072021484 27.67697906494141 0 21.48127937316895 0 13.8384895324707 C 0 6.195699691772461 6.195980072021484 0 13.83911037445068 0 Z" stroke="none" fill="#fff"/>
    </g>
    <g id="Tracé_35" data-name="Tracé 35" transform="translate(2.768 30.445)" fill="#fff">
      <path d="M 13.83911037445068 27.17697906494141 C 10.27610015869141 27.17697906494141 6.926350593566895 25.78952980041504 4.406930446624756 23.27021980285645 C 1.887510418891907 20.75090980529785 0.5000003576278687 17.40132904052734 0.5000003576278687 13.8384895324707 C 0.5000003576278687 10.27564907073975 1.887510418891907 6.926069736480713 4.406930446624756 4.406759738922119 C 6.926350593566895 1.887449502944946 10.27610015869141 0.4999995231628418 13.83911037445068 0.4999995231628418 C 17.40212059020996 0.4999995231628418 20.75187110900879 1.887449502944946 23.27128982543945 4.406759738922119 C 25.79071044921875 6.926069736480713 27.17822074890137 10.27564907073975 27.17822074890137 13.8384895324707 C 27.17822074890137 17.40132904052734 25.79071044921875 20.75090980529785 23.27128982543945 23.27021980285645 C 20.75187110900879 25.78952980041504 17.40212059020996 27.17697906494141 13.83911037445068 27.17697906494141 Z" stroke="none"/>
      <path d="M 13.83911037445068 1 C 10.4096508026123 1 7.185461044311523 2.335439682006836 4.760469436645508 4.760318756103516 C 2.335491180419922 7.185190200805664 1 10.40921020507812 1 13.8384895324707 C 1 17.26776885986328 2.335491180419922 20.49178886413574 4.760469436645508 22.91666030883789 C 7.185461044311523 25.34153938293457 10.4096508026123 26.67697906494141 13.83911037445068 26.67697906494141 C 17.26856994628906 26.67697906494141 20.49275970458984 25.34153938293457 22.91775131225586 22.91666030883789 C 25.34272956848145 20.49178886413574 26.67822074890137 17.26776885986328 26.67822074890137 13.8384895324707 C 26.67822074890137 10.40921020507812 25.34272956848145 7.185190200805664 22.91775131225586 4.760318756103516 C 20.49275970458984 2.335439682006836 17.26856994628906 1 13.83911037445068 1 M 13.83911037445068 0 C 21.48224067687988 0 27.67822074890137 6.195699691772461 27.67822074890137 13.8384895324707 C 27.67822074890137 21.48127937316895 21.48224067687988 27.67697906494141 13.83911037445068 27.67697906494141 C 6.195980072021484 27.67697906494141 0 21.48127937316895 0 13.8384895324707 C 0 6.195699691772461 6.195980072021484 0 13.83911037445068 0 Z" stroke="none" fill="#fff"/>
    </g>
    <g id="Tracé_36" data-name="Tracé 36" transform="translate(16.607 33.212)" fill="#fff">
      <path d="M 13.83911037445068 27.17697906494141 C 10.27610015869141 27.17697906494141 6.926350593566895 25.78952980041504 4.406930446624756 23.27021980285645 C 1.887510418891907 20.75090980529785 0.5000003576278687 17.40132904052734 0.5000003576278687 13.8384895324707 C 0.5000003576278687 10.27564907073975 1.887510418891907 6.926069736480713 4.406930446624756 4.406759738922119 C 6.926350593566895 1.887449502944946 10.27610015869141 0.4999995231628418 13.83911037445068 0.4999995231628418 C 17.40212059020996 0.4999995231628418 20.75187110900879 1.887449502944946 23.27128982543945 4.406759738922119 C 25.79071044921875 6.926069736480713 27.17822074890137 10.27564907073975 27.17822074890137 13.8384895324707 C 27.17822074890137 17.40132904052734 25.79071044921875 20.75090980529785 23.27128982543945 23.27021980285645 C 20.75187110900879 25.78952980041504 17.40212059020996 27.17697906494141 13.83911037445068 27.17697906494141 Z" stroke="none"/>
      <path d="M 13.83911037445068 1 C 10.4096508026123 1 7.185461044311523 2.335439682006836 4.760469436645508 4.760318756103516 C 2.335491180419922 7.185190200805664 1 10.40921020507812 1 13.8384895324707 C 1 17.26776885986328 2.335491180419922 20.49178886413574 4.760469436645508 22.91666030883789 C 7.185461044311523 25.34153938293457 10.4096508026123 26.67697906494141 13.83911037445068 26.67697906494141 C 17.26856994628906 26.67697906494141 20.49275970458984 25.34153938293457 22.91775131225586 22.91666030883789 C 25.34272956848145 20.49178886413574 26.67822074890137 17.26776885986328 26.67822074890137 13.8384895324707 C 26.67822074890137 10.40921020507812 25.34272956848145 7.185190200805664 22.91775131225586 4.760318756103516 C 20.49275970458984 2.335439682006836 17.26856994628906 1 13.83911037445068 1 M 13.83911037445068 0 C 21.48224067687988 0 27.67822074890137 6.195699691772461 27.67822074890137 13.8384895324707 C 27.67822074890137 21.48127937316895 21.48224067687988 27.67697906494141 13.83911037445068 27.67697906494141 C 6.195980072021484 27.67697906494141 0 21.48127937316895 0 13.8384895324707 C 0 6.195699691772461 6.195980072021484 0 13.83911037445068 0 Z" stroke="none" fill="#fff"/>
    </g>
    <g id="Tracé_37" data-name="Tracé 37" transform="translate(13.839 13.838)" fill="#fff">
      <path d="M 13.83911037445068 27.17697906494141 C 10.27610015869141 27.17697906494141 6.926350593566895 25.78952980041504 4.406930446624756 23.27021980285645 C 1.887510418891907 20.75090980529785 0.5000003576278687 17.40132904052734 0.5000003576278687 13.8384895324707 C 0.5000003576278687 10.27564907073975 1.887510418891907 6.926069736480713 4.406930446624756 4.406759738922119 C 6.926350593566895 1.887449502944946 10.27610015869141 0.4999995231628418 13.83911037445068 0.4999995231628418 C 17.40212059020996 0.4999995231628418 20.75187110900879 1.887449502944946 23.27128982543945 4.406759738922119 C 25.79071044921875 6.926069736480713 27.17822074890137 10.27564907073975 27.17822074890137 13.8384895324707 C 27.17822074890137 17.40132904052734 25.79071044921875 20.75090980529785 23.27128982543945 23.27021980285645 C 20.75187110900879 25.78952980041504 17.40212059020996 27.17697906494141 13.83911037445068 27.17697906494141 Z" stroke="none"/>
      <path d="M 13.83911037445068 1 C 10.4096508026123 1 7.185461044311523 2.335439682006836 4.760469436645508 4.760318756103516 C 2.335491180419922 7.185190200805664 1 10.40921020507812 1 13.8384895324707 C 1 17.26776885986328 2.335491180419922 20.49178886413574 4.760469436645508 22.91666030883789 C 7.185461044311523 25.34153938293457 10.4096508026123 26.67697906494141 13.83911037445068 26.67697906494141 C 17.26856994628906 26.67697906494141 20.49275970458984 25.34153938293457 22.91775131225586 22.91666030883789 C 25.34272956848145 20.49178886413574 26.67822074890137 17.26776885986328 26.67822074890137 13.8384895324707 C 26.67822074890137 10.40921020507812 25.34272956848145 7.185190200805664 22.91775131225586 4.760318756103516 C 20.49275970458984 2.335439682006836 17.26856994628906 1 13.83911037445068 1 M 13.83911037445068 0 C 21.48224067687988 0 27.67822074890137 6.195699691772461 27.67822074890137 13.8384895324707 C 27.67822074890137 21.48127937316895 21.48224067687988 27.67697906494141 13.83911037445068 27.67697906494141 C 6.195980072021484 27.67697906494141 0 21.48127937316895 0 13.8384895324707 C 0 6.195699691772461 6.195980072021484 0 13.83911037445068 0 Z" stroke="none" fill="#fff"/>
    </g>
    <g id="Tracé_38" data-name="Tracé 38" transform="translate(27.678 19.374)" fill="#fff">
      <path d="M 13.83911037445068 27.17697906494141 C 10.27610015869141 27.17697906494141 6.926350593566895 25.78952980041504 4.406930446624756 23.27021980285645 C 1.887510418891907 20.75090980529785 0.5000003576278687 17.40132904052734 0.5000003576278687 13.8384895324707 C 0.5000003576278687 10.27564907073975 1.887510418891907 6.926069736480713 4.406930446624756 4.406759738922119 C 6.926350593566895 1.887449502944946 10.27610015869141 0.4999995231628418 13.83911037445068 0.4999995231628418 C 17.40212059020996 0.4999995231628418 20.75187110900879 1.887449502944946 23.27128982543945 4.406759738922119 C 25.79071044921875 6.926069736480713 27.17822074890137 10.27564907073975 27.17822074890137 13.8384895324707 C 27.17822074890137 17.40132904052734 25.79071044921875 20.75090980529785 23.27128982543945 23.27021980285645 C 20.75187110900879 25.78952980041504 17.40212059020996 27.17697906494141 13.83911037445068 27.17697906494141 Z" stroke="none"/>
      <path d="M 13.83911037445068 1 C 10.4096508026123 1 7.185461044311523 2.335439682006836 4.760469436645508 4.760318756103516 C 2.335491180419922 7.185190200805664 1 10.40921020507812 1 13.8384895324707 C 1 17.26776885986328 2.335491180419922 20.49178886413574 4.760469436645508 22.91666030883789 C 7.185461044311523 25.34153938293457 10.4096508026123 26.67697906494141 13.83911037445068 26.67697906494141 C 17.26856994628906 26.67697906494141 20.49275970458984 25.34153938293457 22.91775131225586 22.91666030883789 C 25.34272956848145 20.49178886413574 26.67822074890137 17.26776885986328 26.67822074890137 13.8384895324707 C 26.67822074890137 10.40921020507812 25.34272956848145 7.185190200805664 22.91775131225586 4.760318756103516 C 20.49275970458984 2.335439682006836 17.26856994628906 1 13.83911037445068 1 M 13.83911037445068 0 C 21.48224067687988 0 27.67822074890137 6.195699691772461 27.67822074890137 13.8384895324707 C 27.67822074890137 21.48127937316895 21.48224067687988 27.67697906494141 13.83911037445068 27.67697906494141 C 6.195980072021484 27.67697906494141 0 21.48127937316895 0 13.8384895324707 C 0 6.195699691772461 6.195980072021484 0 13.83911037445068 0 Z" stroke="none" fill="#fff"/>
    </g>
    <g id="Tracé_39" data-name="Tracé 39" transform="translate(35.982 5.535)" fill="#fff">
      <path d="M 13.83911037445068 27.17697906494141 C 10.27610015869141 27.17697906494141 6.926350593566895 25.78952980041504 4.406930446624756 23.27021980285645 C 1.887510418891907 20.75090980529785 0.5000003576278687 17.40132904052734 0.5000003576278687 13.8384895324707 C 0.5000003576278687 10.27564907073975 1.887510418891907 6.926069736480713 4.406930446624756 4.406759738922119 C 6.926350593566895 1.887449502944946 10.27610015869141 0.4999995231628418 13.83911037445068 0.4999995231628418 C 17.40212059020996 0.4999995231628418 20.75187110900879 1.887449502944946 23.27128982543945 4.406759738922119 C 25.79071044921875 6.926069736480713 27.17822074890137 10.27564907073975 27.17822074890137 13.8384895324707 C 27.17822074890137 17.40132904052734 25.79071044921875 20.75090980529785 23.27128982543945 23.27021980285645 C 20.75187110900879 25.78952980041504 17.40212059020996 27.17697906494141 13.83911037445068 27.17697906494141 Z" stroke="none"/>
      <path d="M 13.83911037445068 1 C 10.4096508026123 1 7.185461044311523 2.335439682006836 4.760469436645508 4.760318756103516 C 2.335491180419922 7.185190200805664 1 10.40921020507812 1 13.8384895324707 C 1 17.26776885986328 2.335491180419922 20.49178886413574 4.760469436645508 22.91666030883789 C 7.185461044311523 25.34153938293457 10.4096508026123 26.67697906494141 13.83911037445068 26.67697906494141 C 17.26856994628906 26.67697906494141 20.49275970458984 25.34153938293457 22.91775131225586 22.91666030883789 C 25.34272956848145 20.49178886413574 26.67822074890137 17.26776885986328 26.67822074890137 13.8384895324707 C 26.67822074890137 10.40921020507812 25.34272956848145 7.185190200805664 22.91775131225586 4.760318756103516 C 20.49275970458984 2.335439682006836 17.26856994628906 1 13.83911037445068 1 M 13.83911037445068 0 C 21.48224067687988 0 27.67822074890137 6.195699691772461 27.67822074890137 13.8384895324707 C 27.67822074890137 21.48127937316895 21.48224067687988 27.67697906494141 13.83911037445068 27.67697906494141 C 6.195980072021484 27.67697906494141 0 21.48127937316895 0 13.8384895324707 C 0 6.195699691772461 6.195980072021484 0 13.83911037445068 0 Z" stroke="none" fill="#fff"/>
    </g>
    <g id="Tracé_40" data-name="Tracé 40" transform="translate(49.821 11.071)" fill="#fff">
      <path d="M 13.83911037445068 27.17697906494141 C 10.27610015869141 27.17697906494141 6.926350593566895 25.78952980041504 4.406930446624756 23.27021980285645 C 1.887510418891907 20.75090980529785 0.5000003576278687 17.40132904052734 0.5000003576278687 13.8384895324707 C 0.5000003576278687 10.27564907073975 1.887510418891907 6.926069736480713 4.406930446624756 4.406759738922119 C 6.926350593566895 1.887449502944946 10.27610015869141 0.4999995231628418 13.83911037445068 0.4999995231628418 C 17.40212059020996 0.4999995231628418 20.75187110900879 1.887449502944946 23.27128982543945 4.406759738922119 C 25.79071044921875 6.926069736480713 27.17822074890137 10.27564907073975 27.17822074890137 13.8384895324707 C 27.17822074890137 17.40132904052734 25.79071044921875 20.75090980529785 23.27128982543945 23.27021980285645 C 20.75187110900879 25.78952980041504 17.40212059020996 27.17697906494141 13.83911037445068 27.17697906494141 Z" stroke="none"/>
      <path d="M 13.83911037445068 1 C 10.4096508026123 1 7.185461044311523 2.335439682006836 4.760469436645508 4.760318756103516 C 2.335491180419922 7.185190200805664 1 10.40921020507812 1 13.8384895324707 C 1 17.26776885986328 2.335491180419922 20.49178886413574 4.760469436645508 22.91666030883789 C 7.185461044311523 25.34153938293457 10.4096508026123 26.67697906494141 13.83911037445068 26.67697906494141 C 17.26856994628906 26.67697906494141 20.49275970458984 25.34153938293457 22.91775131225586 22.91666030883789 C 25.34272956848145 20.49178886413574 26.67822074890137 17.26776885986328 26.67822074890137 13.8384895324707 C 26.67822074890137 10.40921020507812 25.34272956848145 7.185190200805664 22.91775131225586 4.760318756103516 C 20.49275970458984 2.335439682006836 17.26856994628906 1 13.83911037445068 1 M 13.83911037445068 0 C 21.48224067687988 0 27.67822074890137 6.195699691772461 27.67822074890137 13.8384895324707 C 27.67822074890137 21.48127937316895 21.48224067687988 27.67697906494141 13.83911037445068 27.67697906494141 C 6.195980072021484 27.67697906494141 0 21.48127937316895 0 13.8384895324707 C 0 6.195699691772461 6.195980072021484 0 13.83911037445068 0 Z" stroke="none" fill="#fff"/>
    </g>
    <g id="Tracé_41" data-name="Tracé 41" transform="translate(58.124)" fill="#fff">
      <path d="M 13.83911037445068 27.17697906494141 C 10.27610015869141 27.17697906494141 6.926350593566895 25.78952980041504 4.406930446624756 23.27021980285645 C 1.887510418891907 20.75090980529785 0.5000003576278687 17.40132904052734 0.5000003576278687 13.8384895324707 C 0.5000003576278687 10.27564907073975 1.887510418891907 6.926069736480713 4.406930446624756 4.406759738922119 C 6.926350593566895 1.887449502944946 10.27610015869141 0.4999995231628418 13.83911037445068 0.4999995231628418 C 17.40212059020996 0.4999995231628418 20.75187110900879 1.887449502944946 23.27128982543945 4.406759738922119 C 25.79071044921875 6.926069736480713 27.17822074890137 10.27564907073975 27.17822074890137 13.8384895324707 C 27.17822074890137 17.40132904052734 25.79071044921875 20.75090980529785 23.27128982543945 23.27021980285645 C 20.75187110900879 25.78952980041504 17.40212059020996 27.17697906494141 13.83911037445068 27.17697906494141 Z" stroke="none"/>
      <path d="M 13.83911037445068 1 C 10.4096508026123 1 7.185461044311523 2.335439682006836 4.760469436645508 4.760318756103516 C 2.335491180419922 7.185190200805664 1 10.40921020507812 1 13.8384895324707 C 1 17.26776885986328 2.335491180419922 20.49178886413574 4.760469436645508 22.91666030883789 C 7.185461044311523 25.34153938293457 10.4096508026123 26.67697906494141 13.83911037445068 26.67697906494141 C 17.26856994628906 26.67697906494141 20.49275970458984 25.34153938293457 22.91775131225586 22.91666030883789 C 25.34272956848145 20.49178886413574 26.67822074890137 17.26776885986328 26.67822074890137 13.8384895324707 C 26.67822074890137 10.40921020507812 25.34272956848145 7.185190200805664 22.91775131225586 4.760318756103516 C 20.49275970458984 2.335439682006836 17.26856994628906 1 13.83911037445068 1 M 13.83911037445068 0 C 21.48224067687988 0 27.67822074890137 6.195699691772461 27.67822074890137 13.8384895324707 C 27.67822074890137 21.48127937316895 21.48224067687988 27.67697906494141 13.83911037445068 27.67697906494141 C 6.195980072021484 27.67697906494141 0 21.48127937316895 0 13.8384895324707 C 0 6.195699691772461 6.195980072021484 0 13.83911037445068 0 Z" stroke="none" fill="#fff"/>
    </g>
    <g id="Tracé_42" data-name="Tracé 42" transform="translate(41.517 2.768)" fill="#fff">
      <path d="M 13.83911037445068 27.17697906494141 C 10.27610015869141 27.17697906494141 6.926350593566895 25.78952980041504 4.406930446624756 23.27021980285645 C 1.887510418891907 20.75090980529785 0.5000003576278687 17.40132904052734 0.5000003576278687 13.8384895324707 C 0.5000003576278687 10.27564907073975 1.887510418891907 6.926069736480713 4.406930446624756 4.406759738922119 C 6.926350593566895 1.887449502944946 10.27610015869141 0.4999995231628418 13.83911037445068 0.4999995231628418 C 17.40212059020996 0.4999995231628418 20.75187110900879 1.887449502944946 23.27128982543945 4.406759738922119 C 25.79071044921875 6.926069736480713 27.17822074890137 10.27564907073975 27.17822074890137 13.8384895324707 C 27.17822074890137 17.40132904052734 25.79071044921875 20.75090980529785 23.27128982543945 23.27021980285645 C 20.75187110900879 25.78952980041504 17.40212059020996 27.17697906494141 13.83911037445068 27.17697906494141 Z" stroke="none"/>
      <path d="M 13.83911037445068 1 C 10.4096508026123 1 7.185461044311523 2.335439682006836 4.760469436645508 4.760318756103516 C 2.335491180419922 7.185190200805664 1 10.40921020507812 1 13.8384895324707 C 1 17.26776885986328 2.335491180419922 20.49178886413574 4.760469436645508 22.91666030883789 C 7.185461044311523 25.34153938293457 10.4096508026123 26.67697906494141 13.83911037445068 26.67697906494141 C 17.26856994628906 26.67697906494141 20.49275970458984 25.34153938293457 22.91775131225586 22.91666030883789 C 25.34272956848145 20.49178886413574 26.67822074890137 17.26776885986328 26.67822074890137 13.8384895324707 C 26.67822074890137 10.40921020507812 25.34272956848145 7.185190200805664 22.91775131225586 4.760318756103516 C 20.49275970458984 2.335439682006836 17.26856994628906 1 13.83911037445068 1 M 13.83911037445068 0 C 21.48224067687988 0 27.67822074890137 6.195699691772461 27.67822074890137 13.8384895324707 C 27.67822074890137 21.48127937316895 21.48224067687988 27.67697906494141 13.83911037445068 27.67697906494141 C 6.195980072021484 27.67697906494141 0 21.48127937316895 0 13.8384895324707 C 0 6.195699691772461 6.195980072021484 0 13.83911037445068 0 Z" stroke="none" fill="#fff"/>
    </g>
    <g id="Tracé_43" data-name="Tracé 43" transform="translate(27.678 30.445)" fill="#fff">
      <path d="M 13.83911037445068 27.17697906494141 C 10.27610015869141 27.17697906494141 6.926350593566895 25.78952980041504 4.406930446624756 23.27021980285645 C 1.887510418891907 20.75090980529785 0.5000003576278687 17.40132904052734 0.5000003576278687 13.8384895324707 C 0.5000003576278687 10.27564907073975 1.887510418891907 6.926069736480713 4.406930446624756 4.406759738922119 C 6.926350593566895 1.887449502944946 10.27610015869141 0.4999995231628418 13.83911037445068 0.4999995231628418 C 17.40212059020996 0.4999995231628418 20.75187110900879 1.887449502944946 23.27128982543945 4.406759738922119 C 25.79071044921875 6.926069736480713 27.17822074890137 10.27564907073975 27.17822074890137 13.8384895324707 C 27.17822074890137 17.40132904052734 25.79071044921875 20.75090980529785 23.27128982543945 23.27021980285645 C 20.75187110900879 25.78952980041504 17.40212059020996 27.17697906494141 13.83911037445068 27.17697906494141 Z" stroke="none"/>
      <path d="M 13.83911037445068 1 C 10.4096508026123 1 7.185461044311523 2.335439682006836 4.760469436645508 4.760318756103516 C 2.335491180419922 7.185190200805664 1 10.40921020507812 1 13.8384895324707 C 1 17.26776885986328 2.335491180419922 20.49178886413574 4.760469436645508 22.91666030883789 C 7.185461044311523 25.34153938293457 10.4096508026123 26.67697906494141 13.83911037445068 26.67697906494141 C 17.26856994628906 26.67697906494141 20.49275970458984 25.34153938293457 22.91775131225586 22.91666030883789 C 25.34272956848145 20.49178886413574 26.67822074890137 17.26776885986328 26.67822074890137 13.8384895324707 C 26.67822074890137 10.40921020507812 25.34272956848145 7.185190200805664 22.91775131225586 4.760318756103516 C 20.49275970458984 2.335439682006836 17.26856994628906 1 13.83911037445068 1 M 13.83911037445068 0 C 21.48224067687988 0 27.67822074890137 6.195699691772461 27.67822074890137 13.8384895324707 C 27.67822074890137 21.48127937316895 21.48224067687988 27.67697906494141 13.83911037445068 27.67697906494141 C 6.195980072021484 27.67697906494141 0 21.48127937316895 0 13.8384895324707 C 0 6.195699691772461 6.195980072021484 0 13.83911037445068 0 Z" stroke="none" fill="#fff"/>
    </g>
    <g id="Tracé_44" data-name="Tracé 44" transform="translate(35.982 22.142)" fill="#fff">
      <path d="M 13.83911037445068 27.17697906494141 C 10.27610015869141 27.17697906494141 6.926350593566895 25.78952980041504 4.406930446624756 23.27021980285645 C 1.887510418891907 20.75090980529785 0.5000003576278687 17.40132904052734 0.5000003576278687 13.8384895324707 C 0.5000003576278687 10.27564907073975 1.887510418891907 6.926069736480713 4.406930446624756 4.406759738922119 C 6.926350593566895 1.887449502944946 10.27610015869141 0.4999995231628418 13.83911037445068 0.4999995231628418 C 17.40212059020996 0.4999995231628418 20.75187110900879 1.887449502944946 23.27128982543945 4.406759738922119 C 25.79071044921875 6.926069736480713 27.17822074890137 10.27564907073975 27.17822074890137 13.8384895324707 C 27.17822074890137 17.40132904052734 25.79071044921875 20.75090980529785 23.27128982543945 23.27021980285645 C 20.75187110900879 25.78952980041504 17.40212059020996 27.17697906494141 13.83911037445068 27.17697906494141 Z" stroke="none"/>
      <path d="M 13.83911037445068 1 C 10.4096508026123 1 7.185461044311523 2.335439682006836 4.760469436645508 4.760318756103516 C 2.335491180419922 7.185190200805664 1 10.40921020507812 1 13.8384895324707 C 1 17.26776885986328 2.335491180419922 20.49178886413574 4.760469436645508 22.91666030883789 C 7.185461044311523 25.34153938293457 10.4096508026123 26.67697906494141 13.83911037445068 26.67697906494141 C 17.26856994628906 26.67697906494141 20.49275970458984 25.34153938293457 22.91775131225586 22.91666030883789 C 25.34272956848145 20.49178886413574 26.67822074890137 17.26776885986328 26.67822074890137 13.8384895324707 C 26.67822074890137 10.40921020507812 25.34272956848145 7.185190200805664 22.91775131225586 4.760318756103516 C 20.49275970458984 2.335439682006836 17.26856994628906 1 13.83911037445068 1 M 13.83911037445068 0 C 21.48224067687988 0 27.67822074890137 6.195699691772461 27.67822074890137 13.8384895324707 C 27.67822074890137 21.48127937316895 21.48224067687988 27.67697906494141 13.83911037445068 27.67697906494141 C 6.195980072021484 27.67697906494141 0 21.48127937316895 0 13.8384895324707 C 0 6.195699691772461 6.195980072021484 0 13.83911037445068 0 Z" stroke="none" fill="#fff"/>
    </g>
    <g id="Tracé_45" data-name="Tracé 45" transform="translate(0 55.354)" fill="#fff">
      <path d="M 9.687376976013184 18.87388229370117 C 4.621437072753906 18.87388229370117 0.4999969899654388 14.75264167785645 0.4999969899654388 9.686942100524902 C 0.4999969899654388 4.621242046356201 4.621437072753906 0.5000020861625671 9.687376976013184 0.5000020861625671 C 14.75331687927246 0.5000020861625671 18.87475776672363 4.621242046356201 18.87475776672363 9.686942100524902 C 18.87475776672363 14.75264167785645 14.75331687927246 18.87388229370117 9.687376976013184 18.87388229370117 Z" stroke="none"/>
      <path d="M 9.687376976013184 1.000001907348633 C 4.897136688232422 1.000001907348633 0.9999961853027344 4.896951675415039 0.9999961853027344 9.686942100524902 C 0.9999961853027344 14.47693252563477 4.897136688232422 18.37388229370117 9.687376976013184 18.37388229370117 C 14.47761726379395 18.37388229370117 18.37475776672363 14.47693252563477 18.37475776672363 9.686942100524902 C 18.37475776672363 4.896951675415039 14.47761726379395 1.000001907348633 9.687376976013184 1.000001907348633 M 9.687376976013184 1.9073486328125e-06 C 15.03756713867188 1.9073486328125e-06 19.37475776672363 4.336992263793945 19.37475776672363 9.686942100524902 C 19.37475776672363 15.03689193725586 15.03756713867188 19.37388229370117 9.687376976013184 19.37388229370117 C 4.337186813354492 19.37388229370117 -3.814697265625e-06 15.03689193725586 -3.814697265625e-06 9.686942100524902 C -3.814697265625e-06 4.336992263793945 4.337186813354492 1.9073486328125e-06 9.687376976013184 1.9073486328125e-06 Z" stroke="none" fill="#fff"/>
    </g>
    <g id="Tracé_46" data-name="Tracé 46" transform="translate(71.963)" fill="#fff">
      <path d="M 11.07128810882568 24.40928077697754 C 5.242258071899414 24.40928077697754 0.4999981224536896 19.04644966125488 0.4999981224536896 12.45464038848877 C 0.4999981224536896 5.86283016204834 5.242258071899414 0.5000004172325134 11.07128810882568 0.5000004172325134 C 16.90031814575195 0.5000004172325134 21.642578125 5.86283016204834 21.642578125 12.45464038848877 C 21.642578125 19.04644966125488 16.90031814575195 24.40928077697754 11.07128810882568 24.40928077697754 Z" stroke="none"/>
      <path d="M 11.07128810882568 1 C 5.51795768737793 1 0.9999980926513672 6.138530731201172 0.9999980926513672 12.45464038848877 C 0.9999980926513672 18.77075004577637 5.51795768737793 23.90928077697754 11.07128810882568 23.90928077697754 C 16.62461853027344 23.90928077697754 21.142578125 18.77075004577637 21.142578125 12.45464038848877 C 21.142578125 6.138530731201172 16.62461853027344 1 11.07128810882568 1 M 11.07128810882568 0 C 17.18578720092773 0 22.142578125 5.576129913330078 22.142578125 12.45464038848877 C 22.142578125 19.33315086364746 17.18578720092773 24.90928077697754 11.07128810882568 24.90928077697754 C 4.956789016723633 24.90928077697754 -1.9073486328125e-06 19.33315086364746 -1.9073486328125e-06 12.45464038848877 C -1.9073486328125e-06 5.576129913330078 4.956789016723633 0 11.07128810882568 0 Z" stroke="none" fill="#fff"/>
    </g>
    <g id="Tracé_47" data-name="Tracé 47" transform="translate(24.91 8.303)" fill="#fff">
      <path d="M 13.83911037445068 27.17697906494141 C 10.27610015869141 27.17697906494141 6.926350593566895 25.78952980041504 4.406930446624756 23.27021980285645 C 1.887510418891907 20.75090980529785 0.5000003576278687 17.40132904052734 0.5000003576278687 13.8384895324707 C 0.5000003576278687 10.27564907073975 1.887510418891907 6.926069736480713 4.406930446624756 4.406759738922119 C 6.926350593566895 1.887449502944946 10.27610015869141 0.4999995231628418 13.83911037445068 0.4999995231628418 C 17.40212059020996 0.4999995231628418 20.75187110900879 1.887449502944946 23.27128982543945 4.406759738922119 C 25.79071044921875 6.926069736480713 27.17822074890137 10.27564907073975 27.17822074890137 13.8384895324707 C 27.17822074890137 17.40132904052734 25.79071044921875 20.75090980529785 23.27128982543945 23.27021980285645 C 20.75187110900879 25.78952980041504 17.40212059020996 27.17697906494141 13.83911037445068 27.17697906494141 Z" stroke="none"/>
      <path d="M 13.83911037445068 1 C 10.4096508026123 1 7.185461044311523 2.335439682006836 4.760469436645508 4.760318756103516 C 2.335491180419922 7.185190200805664 1 10.40921020507812 1 13.8384895324707 C 1 17.26776885986328 2.335491180419922 20.49178886413574 4.760469436645508 22.91666030883789 C 7.185461044311523 25.34153938293457 10.4096508026123 26.67697906494141 13.83911037445068 26.67697906494141 C 17.26856994628906 26.67697906494141 20.49275970458984 25.34153938293457 22.91775131225586 22.91666030883789 C 25.34272956848145 20.49178886413574 26.67822074890137 17.26776885986328 26.67822074890137 13.8384895324707 C 26.67822074890137 10.40921020507812 25.34272956848145 7.185190200805664 22.91775131225586 4.760318756103516 C 20.49275970458984 2.335439682006836 17.26856994628906 1 13.83911037445068 1 M 13.83911037445068 0 C 21.48224067687988 0 27.67822074890137 6.195699691772461 27.67822074890137 13.8384895324707 C 27.67822074890137 21.48127937316895 21.48224067687988 27.67697906494141 13.83911037445068 27.67697906494141 C 6.195980072021484 27.67697906494141 0 21.48127937316895 0 13.8384895324707 C 0 6.195699691772461 6.195980072021484 0 13.83911037445068 0 Z" stroke="none" fill="#fff"/>
    </g>
    <g id="Tracé_48" data-name="Tracé 48" transform="translate(47.053 2.768)" fill="#fff">
      <path d="M 13.83911037445068 27.17697906494141 C 10.27610015869141 27.17697906494141 6.926350593566895 25.78952980041504 4.406930446624756 23.27021980285645 C 1.887510418891907 20.75090980529785 0.5000003576278687 17.40132904052734 0.5000003576278687 13.8384895324707 C 0.5000003576278687 10.27564907073975 1.887510418891907 6.926069736480713 4.406930446624756 4.406759738922119 C 6.926350593566895 1.887449502944946 10.27610015869141 0.4999995231628418 13.83911037445068 0.4999995231628418 C 17.40212059020996 0.4999995231628418 20.75187110900879 1.887449502944946 23.27128982543945 4.406759738922119 C 25.79071044921875 6.926069736480713 27.17822074890137 10.27564907073975 27.17822074890137 13.8384895324707 C 27.17822074890137 17.40132904052734 25.79071044921875 20.75090980529785 23.27128982543945 23.27021980285645 C 20.75187110900879 25.78952980041504 17.40212059020996 27.17697906494141 13.83911037445068 27.17697906494141 Z" stroke="none"/>
      <path d="M 13.83911037445068 1 C 10.4096508026123 1 7.185461044311523 2.335439682006836 4.760469436645508 4.760318756103516 C 2.335491180419922 7.185190200805664 1 10.40921020507812 1 13.8384895324707 C 1 17.26776885986328 2.335491180419922 20.49178886413574 4.760469436645508 22.91666030883789 C 7.185461044311523 25.34153938293457 10.4096508026123 26.67697906494141 13.83911037445068 26.67697906494141 C 17.26856994628906 26.67697906494141 20.49275970458984 25.34153938293457 22.91775131225586 22.91666030883789 C 25.34272956848145 20.49178886413574 26.67822074890137 17.26776885986328 26.67822074890137 13.8384895324707 C 26.67822074890137 10.40921020507812 25.34272956848145 7.185190200805664 22.91775131225586 4.760318756103516 C 20.49275970458984 2.335439682006836 17.26856994628906 1 13.83911037445068 1 M 13.83911037445068 0 C 21.48224067687988 0 27.67822074890137 6.195699691772461 27.67822074890137 13.8384895324707 C 27.67822074890137 21.48127937316895 21.48224067687988 27.67697906494141 13.83911037445068 27.67697906494141 C 6.195980072021484 27.67697906494141 0 21.48127937316895 0 13.8384895324707 C 0 6.195699691772461 6.195980072021484 0 13.83911037445068 0 Z" stroke="none" fill="#fff"/>
    </g>
    <g id="Tracé_49" data-name="Tracé 49" transform="translate(44.285 16.606)" fill="#fff">
      <path d="M 13.83911037445068 27.17697906494141 C 10.27610015869141 27.17697906494141 6.926350593566895 25.78952980041504 4.406930446624756 23.27021980285645 C 1.887510418891907 20.75090980529785 0.5000003576278687 17.40132904052734 0.5000003576278687 13.8384895324707 C 0.5000003576278687 10.27564907073975 1.887510418891907 6.926069736480713 4.406930446624756 4.406759738922119 C 6.926350593566895 1.887449502944946 10.27610015869141 0.4999995231628418 13.83911037445068 0.4999995231628418 C 17.40212059020996 0.4999995231628418 20.75187110900879 1.887449502944946 23.27128982543945 4.406759738922119 C 25.79071044921875 6.926069736480713 27.17822074890137 10.27564907073975 27.17822074890137 13.8384895324707 C 27.17822074890137 17.40132904052734 25.79071044921875 20.75090980529785 23.27128982543945 23.27021980285645 C 20.75187110900879 25.78952980041504 17.40212059020996 27.17697906494141 13.83911037445068 27.17697906494141 Z" stroke="none"/>
      <path d="M 13.83911037445068 1 C 10.4096508026123 1 7.185461044311523 2.335439682006836 4.760469436645508 4.760318756103516 C 2.335491180419922 7.185190200805664 1 10.40921020507812 1 13.8384895324707 C 1 17.26776885986328 2.335491180419922 20.49178886413574 4.760469436645508 22.91666030883789 C 7.185461044311523 25.34153938293457 10.4096508026123 26.67697906494141 13.83911037445068 26.67697906494141 C 17.26856994628906 26.67697906494141 20.49275970458984 25.34153938293457 22.91775131225586 22.91666030883789 C 25.34272956848145 20.49178886413574 26.67822074890137 17.26776885986328 26.67822074890137 13.8384895324707 C 26.67822074890137 10.40921020507812 25.34272956848145 7.185190200805664 22.91775131225586 4.760318756103516 C 20.49275970458984 2.335439682006836 17.26856994628906 1 13.83911037445068 1 M 13.83911037445068 0 C 21.48224067687988 0 27.67822074890137 6.195699691772461 27.67822074890137 13.8384895324707 C 27.67822074890137 21.48127937316895 21.48224067687988 27.67697906494141 13.83911037445068 27.67697906494141 C 6.195980072021484 27.67697906494141 0 21.48127937316895 0 13.8384895324707 C 0 6.195699691772461 6.195980072021484 0 13.83911037445068 0 Z" stroke="none" fill="#fff"/>
    </g>
    <g id="Tracé_50" data-name="Tracé 50" transform="translate(60.892 13.838)" fill="#fff">
      <path d="M 12.45519924163818 27.17697906494141 C 9.271889686584473 27.17697906494141 6.27609920501709 25.79631042480469 4.019679069519043 23.2892894744873 C 1.749979257583618 20.76750946044922 0.4999992549419403 17.4111499786377 0.4999992549419403 13.8384895324707 C 0.4999992549419403 10.26582908630371 1.749979257583618 6.909469604492188 4.019679069519043 4.387689590454102 C 6.27609920501709 1.880669474601746 9.271889686584473 0.4999995231628418 12.45519924163818 0.4999995231628418 C 15.63850879669189 0.4999995231628418 18.63429832458496 1.880669474601746 20.89071846008301 4.387689590454102 C 23.16041946411133 6.909469604492188 24.41039848327637 10.26582908630371 24.41039848327637 13.8384895324707 C 24.41039848327637 17.4111499786377 23.16041946411133 20.76750946044922 20.89071846008301 23.2892894744873 C 18.63429832458496 25.79631042480469 15.63850879669189 27.17697906494141 12.45519924163818 27.17697906494141 Z" stroke="none"/>
      <path d="M 12.45519924163818 1 C 6.138778686523438 1 1 6.759319305419922 1 13.8384895324707 C 1 20.91765975952148 6.138778686523438 26.67697906494141 12.45519924163818 26.67697906494141 C 18.77161979675293 26.67697906494141 23.91039848327637 20.91765975952148 23.91039848327637 13.8384895324707 C 23.91039848327637 6.759319305419922 18.77161979675293 1 12.45519924163818 1 M 12.45519924163818 0 C 19.33401870727539 0 24.91039848327637 6.195699691772461 24.91039848327637 13.8384895324707 C 24.91039848327637 21.48127937316895 19.33401870727539 27.67697906494141 12.45519924163818 27.67697906494141 C 5.576379776000977 27.67697906494141 0 21.48127937316895 0 13.8384895324707 C 0 6.195699691772461 5.576379776000977 0 12.45519924163818 0 Z" stroke="none" fill="#fff"/>
    </g>
    <g id="Tracé_51" data-name="Tracé 51" transform="translate(74.731 8.303)" fill="#fff">
      <path d="M 12.45519924163818 21.64158058166504 C 5.863079071044922 21.64158058166504 0.4999992549419403 16.8995418548584 0.4999992549419403 11.07079124450684 C 0.4999992549419403 5.242041110992432 5.863079071044922 0.5000012516975403 12.45519924163818 0.5000012516975403 C 19.04731941223145 0.5000012516975403 24.41039848327637 5.242041110992432 24.41039848327637 11.07079124450684 C 24.41039848327637 16.8995418548584 19.04731941223145 21.64158058166504 12.45519924163818 21.64158058166504 Z" stroke="none"/>
      <path d="M 12.45519924163818 1.000001907348633 C 6.138778686523438 1.000001907348633 1 5.517742156982422 1 11.07079124450684 C 1 16.62384033203125 6.138778686523438 21.14158058166504 12.45519924163818 21.14158058166504 C 18.77161979675293 21.14158058166504 23.91039848327637 16.62384033203125 23.91039848327637 11.07079124450684 C 23.91039848327637 5.517742156982422 18.77161979675293 1.000001907348633 12.45519924163818 1.000001907348633 M 12.45519924163818 1.9073486328125e-06 C 19.33401870727539 1.9073486328125e-06 24.91039848327637 4.956562042236328 24.91039848327637 11.07079124450684 C 24.91039848327637 17.18502044677734 19.33401870727539 22.14158058166504 12.45519924163818 22.14158058166504 C 5.576379776000977 22.14158058166504 0 17.18502044677734 0 11.07079124450684 C 0 4.956562042236328 5.576379776000977 1.9073486328125e-06 12.45519924163818 1.9073486328125e-06 Z" stroke="none" fill="#fff"/>
    </g>
    <g id="Tracé_52" data-name="Tracé 52" transform="translate(83.035 5.535)" fill="#fff">
      <path d="M 9.687376976013184 18.87475776672363 C 4.621437072753906 18.87475776672363 0.4999969899654388 14.75331687927246 0.4999969899654388 9.687376976013184 C 0.4999969899654388 4.621437072753906 4.621437072753906 0.4999969899654388 9.687376976013184 0.4999969899654388 C 14.75331687927246 0.4999969899654388 18.87475776672363 4.621437072753906 18.87475776672363 9.687376976013184 C 18.87475776672363 14.75331687927246 14.75331687927246 18.87475776672363 9.687376976013184 18.87475776672363 Z" stroke="none"/>
      <path d="M 9.687376976013184 0.9999961853027344 C 4.897136688232422 0.9999961853027344 0.9999961853027344 4.897136688232422 0.9999961853027344 9.687376976013184 C 0.9999961853027344 14.47761726379395 4.897136688232422 18.37475776672363 9.687376976013184 18.37475776672363 C 14.47761726379395 18.37475776672363 18.37475776672363 14.47761726379395 18.37475776672363 9.687376976013184 C 18.37475776672363 4.897136688232422 14.47761726379395 0.9999961853027344 9.687376976013184 0.9999961853027344 M 9.687376976013184 -3.814697265625e-06 C 15.03756713867188 -3.814697265625e-06 19.37475776672363 4.337186813354492 19.37475776672363 9.687376976013184 C 19.37475776672363 15.03756713867188 15.03756713867188 19.37475776672363 9.687376976013184 19.37475776672363 C 4.337186813354492 19.37475776672363 -3.814697265625e-06 15.03756713867188 -3.814697265625e-06 9.687376976013184 C -3.814697265625e-06 4.337186813354492 4.337186813354492 -3.814697265625e-06 9.687376976013184 -3.814697265625e-06 Z" stroke="none" fill="#fff"/>
    </g>
    <g id="Tracé_53" data-name="Tracé 53" transform="translate(0 41.515)" fill="#fff">
      <path d="M 13.83911037445068 27.17697906494141 C 10.27610015869141 27.17697906494141 6.926350593566895 25.78952980041504 4.406930446624756 23.27021980285645 C 1.887510418891907 20.75090980529785 0.5000003576278687 17.40132904052734 0.5000003576278687 13.8384895324707 C 0.5000003576278687 10.27564907073975 1.887510418891907 6.926069736480713 4.406930446624756 4.406759738922119 C 6.926350593566895 1.887449502944946 10.27610015869141 0.4999995231628418 13.83911037445068 0.4999995231628418 C 17.40212059020996 0.4999995231628418 20.75187110900879 1.887449502944946 23.27128982543945 4.406759738922119 C 25.79071044921875 6.926069736480713 27.17822074890137 10.27564907073975 27.17822074890137 13.8384895324707 C 27.17822074890137 17.40132904052734 25.79071044921875 20.75090980529785 23.27128982543945 23.27021980285645 C 20.75187110900879 25.78952980041504 17.40212059020996 27.17697906494141 13.83911037445068 27.17697906494141 Z" stroke="none"/>
      <path d="M 13.83911037445068 1 C 10.4096508026123 1 7.185461044311523 2.335439682006836 4.760469436645508 4.760318756103516 C 2.335491180419922 7.185190200805664 1 10.40921020507812 1 13.8384895324707 C 1 17.26776885986328 2.335491180419922 20.49178886413574 4.760469436645508 22.91666030883789 C 7.185461044311523 25.34153938293457 10.4096508026123 26.67697906494141 13.83911037445068 26.67697906494141 C 17.26856994628906 26.67697906494141 20.49275970458984 25.34153938293457 22.91775131225586 22.91666030883789 C 25.34272956848145 20.49178886413574 26.67822074890137 17.26776885986328 26.67822074890137 13.8384895324707 C 26.67822074890137 10.40921020507812 25.34272956848145 7.185190200805664 22.91775131225586 4.760318756103516 C 20.49275970458984 2.335439682006836 17.26856994628906 1 13.83911037445068 1 M 13.83911037445068 0 C 21.48224067687988 0 27.67822074890137 6.195699691772461 27.67822074890137 13.8384895324707 C 27.67822074890137 21.48127937316895 21.48224067687988 27.67697906494141 13.83911037445068 27.67697906494141 C 6.195980072021484 27.67697906494141 0 21.48127937316895 0 13.8384895324707 C 0 6.195699691772461 6.195980072021484 0 13.83911037445068 0 Z" stroke="none" fill="#fff"/>
    </g>
  </g>
</svg>
