<svg xmlns="http://www.w3.org/2000/svg" width="152.578" height="174.233" viewBox="0 0 152.578 174.233">
  <path id="Icon_awesome-user" data-name="Icon awesome-user" d="M75.789,86.616A43.308,43.308,0,1,0,32.481,43.308,43.3,43.3,0,0,0,75.789,86.616ZM106.1,97.443h-5.65a58.9,58.9,0,0,1-49.331,0h-5.65A45.485,45.485,0,0,0,0,142.917v14.075a16.245,16.245,0,0,0,16.241,16.241h119.1a16.245,16.245,0,0,0,16.241-16.241V142.917A45.485,45.485,0,0,0,106.1,97.443Z" transform="translate(0.5 0.5)" fill="none" stroke="#bcbdbe" stroke-width="1"/>
</svg>
