<svg xmlns="http://www.w3.org/2000/svg" width="37.71" height="37.71" viewBox="0 0 37.71 37.71">
  <path id="Icon_awesome-beer" data-name="Icon awesome-beer" d="M30.155,7.494H26.222V4.217A1.967,1.967,0,0,0,24.255,2.25H1.967A1.967,1.967,0,0,0,0,4.217V36.994A1.967,1.967,0,0,0,1.967,38.96H24.255a1.967,1.967,0,0,0,1.967-1.967V33.543l6.605-2.948a6.563,6.563,0,0,0,3.884-5.986V14.05A6.563,6.563,0,0,0,30.155,7.494Zm1.311,17.114a1.313,1.313,0,0,1-.777,1.2L26.222,27.8V12.739h3.933a1.313,1.313,0,0,1,1.311,1.311ZM17.044,31.094a1.311,1.311,0,0,1-1.311-1.311V11.428a1.311,1.311,0,0,1,2.622,0V29.783A1.311,1.311,0,0,1,17.044,31.094Zm-7.866,0a1.311,1.311,0,0,1-1.311-1.311V11.428a1.311,1.311,0,0,1,2.622,0V29.783A1.311,1.311,0,0,1,9.178,31.094Z" transform="translate(0.5 -1.75)" fill="none" stroke="#bcbdbe" stroke-width="1"/>
</svg>
