<svg xmlns="http://www.w3.org/2000/svg" width="46.858" height="38.072" viewBox="0 0 46.858 38.072">
  <g id="Icon_material-photo-camera" data-name="Icon material-photo-camera" transform="translate(-2.5 -2.5)">
    <path id="Tracé_9" data-name="Tracé 9" d="M17.489,15.345A2.145,2.145,0,1,1,15.345,13.2,2.145,2.145,0,0,1,17.489,15.345Z" transform="translate(10.584 9.017)" fill="none" stroke="#bcbdbe" stroke-width="2"/>
    <path id="Tracé_10" data-name="Tracé 10" d="M19.05,3l-4.2,4.119H7.586A4.384,4.384,0,0,0,3,11.238V35.953a4.384,4.384,0,0,0,4.586,4.119H44.272a4.384,4.384,0,0,0,4.586-4.119V11.238a4.384,4.384,0,0,0-4.586-4.119H37L32.807,3Zm6.879,30.893c-6.328,0-11.464-4.613-11.464-10.3S19.6,13.3,25.929,13.3s11.464,4.613,11.464,10.3S32.257,33.893,25.929,33.893Z" fill="none" stroke="#bcbdbe" stroke-width="1"/>
  </g>
</svg>
