<svg xmlns="http://www.w3.org/2000/svg" width="41.842" height="37.71" viewBox="0 0 41.842 37.71">
  <g id="Stats" transform="translate(0.501 -2.5)">
    <path id="Tracé_11" data-name="Tracé 11" d="M40.108,39.71H0V3.68a.68.68,0,1,1,1.36,0V38.35H40.108a.68.68,0,0,1,0,1.36Z" transform="translate(0 0)" fill="none" stroke="#bcbdbe" stroke-width="1"/>
    <path id="Tracé_12" data-name="Tracé 12" d="M6.626,36.71a.609.609,0,0,1-.307-.083.647.647,0,0,1-.239-.871L11.724,25.52a.62.62,0,0,1,.745-.293l5.109,1.738,6.664-14.833a.63.63,0,0,1,.446-.36.623.623,0,0,1,.548.155l6.938,6.488L38.687,6.333a.623.623,0,0,1,.852-.253.645.645,0,0,1,.247.868l-6.9,12.8a.625.625,0,0,1-.448.324.606.606,0,0,1-.526-.159l-6.891-6.444L18.484,28.02a.622.622,0,0,1-.769.34l-5.154-1.752L7.173,36.384A.623.623,0,0,1,6.626,36.71Z" transform="translate(0.925 0)" fill="none" stroke="#bcbdbe" stroke-width="1"/>
  </g>
</svg>
